HIERARCHY
ROOT Hips
{
  OFFSET 279.157 85.6768 304.565
  CHANNELS 6 Xposition Yposition Zposition Zrotation Xrotation Yrotation
  JOINT LeftUpLeg
  {
    OFFSET 8.64259 1.95398 -2.38835
    CHANNELS 3 Zrotation Xrotation Yrotation
    JOINT LeftLeg
    {
      OFFSET 43.7702 0 0
      CHANNELS 3 Zrotation Xrotation Yrotation
      JOINT LeftFoot
      {
        OFFSET 40.6238 0 0
        CHANNELS 3 Zrotation Xrotation Yrotation
        JOINT LeftToeBase
        {
          OFFSET 12.7242 0 0
          CHANNELS 3 Zrotation Xrotation Yrotation
          End Site
          {
            OFFSET 0 0 0
          }
        }
      }
    }
  }
  JOINT RightUpLeg
  {
    OFFSET -8.2249 1.95398 -2.59336
    CHANNELS 3 Zrotation Xrotation Yrotation
    JOINT RightLeg
    {
      OFFSET 43.5653 0 0
      CHANNELS 3 Zrotation Xrotation Yrotation
      JOINT RightFoot
      {
        OFFSET 40.6238 0 0
        CHANNELS 3 Zrotation Xrotation Yrotation
        JOINT RightToeBase
        {
          OFFSET 12.7242 0 0
          CHANNELS 3 Zrotation Xrotation Yrotation
          End Site
          {
            OFFSET 0 0 0
          }
        }
      }
    }
  }
  JOINT Spine
  {
    OFFSET 0.165834 0.87714 6.61349
    CHANNELS 3 Zrotation Xrotation Yrotation
    JOINT Spine1
    {
      OFFSET 7.38963 1.71661e-005 0
      CHANNELS 3 Zrotation Xrotation Yrotation
      JOINT Spine2
      {
        OFFSET 11.9445 1.14441e-005 0
        CHANNELS 3 Zrotation Xrotation Yrotation
        JOINT Spine3
        {
          OFFSET 14.7254 4.19617e-005 0
          CHANNELS 3 Zrotation Xrotation Yrotation
          JOINT Spine4
          {
            OFFSET 10.9679 0 0
            CHANNELS 3 Zrotation Xrotation Yrotation
            JOINT RightShoulder
            {
              OFFSET 2.46616 -1.6653 3.69651
              CHANNELS 3 Zrotation Xrotation Yrotation
              JOINT RightArm
              {
                OFFSET 13.0012 0 0
                CHANNELS 3 Zrotation Xrotation Yrotation
                JOINT RightForeArm
                {
                  OFFSET 28.7848 1.52588e-005 0
                  CHANNELS 3 Zrotation Xrotation Yrotation
                  JOINT RightHand
                  {
                    OFFSET 26.5688 1.52588e-005 0
                    CHANNELS 3 Zrotation Xrotation Yrotation
                    End Site
                    {
                      OFFSET 0 0 0
                    }
                  }
                }
              }
            }
            JOINT LeftShoulder
            {
              OFFSET 2.38034 -1.29275 -3.7523
              CHANNELS 3 Zrotation Xrotation Yrotation
              JOINT LeftArm
              {
                OFFSET 16.3182 6.10351e-005 0
                CHANNELS 3 Zrotation Xrotation Yrotation
                JOINT LeftForeArm
                {
                  OFFSET 27.0901 0 0
                  CHANNELS 3 Zrotation Xrotation Yrotation
                  JOINT LeftHand
                  {
                    OFFSET 24.5451 1.52588e-005 0
                    CHANNELS 3 Zrotation Xrotation Yrotation
                    End Site
                    {
                      OFFSET 0 0 0
                    }
                  }
                }
              }
            }
            JOINT Neck
            {
              OFFSET 5.0226 -0.0266342 0
              CHANNELS 3 Zrotation Xrotation Yrotation
              JOINT Head
              {
                OFFSET 6.69364 2.86102e-005 0
                CHANNELS 3 Zrotation Xrotation Yrotation
                End Site
                {
                  OFFSET 0 0 0
                }
              }
            }
          }
        }
      }
    }
  }
}
MOTION
Frames:	12
Frame Time:	0.0416667
13.3304 101.977 15.8309 172.918 -81.0931 171.661 -174.605 -4.75332 89.4509 -12.7958 11.0967 0.62899 69.2723 5.99759 -2.35031 17.6651 -9.38278 8.89554 173.444 -5.89872 88.5039 -13.1099 -6.91915 -0.795004 68.0807 -4.14484 2.02657 25.3908 0.570323 3.69923 0.143147 7.90799 -90.0851 11.0581 0.245563 -0.192907 -0.612837 0.23683 -0.203535 -23.1481 0.292183 -0.110189 -3.13545 0.292183 -0.110192 87.929 -31.455 -110.21 40.1124 -12.0359 -4.53735 3.29333 -24.4967 -14.2481 -23.3201 -0.881211 -6.8365 -90.2168 -53.7757 79.1988 -18.5975 15.9393 -11.8378 -1.45354 17.2882 -9.80652 1.74854 -0.176909 -6.77066 1.18062 -2.75961 -2.11945 -4.81449 -2.44159 1.25034 
13.3851 101.978 15.894 173.433 -81.0419 172.155 -174.643 -4.92894 89.372 -12.7245 10.8329 0.654439 69.4635 6.09562 -2.48225 17.3349 -9.45805 8.52423 173.516 -5.86052 88.4642 -13.4485 -9.50363 -1.01702 66.9317 -3.65725 1.28296 27.7923 0.226969 0.836403 0.159992 7.90734 -90.0913 11.0594 0.276161 -0.208357 -0.611516 0.266719 -0.220312 -23.1469 0.326015 -0.115729 -3.13422 0.326008 -0.11573 87.907 -31.424 -110.266 40.1242 -11.8015 -4.37645 3.0714 -24.9991 -13.9636 -24.5188 -0.693848 -8.04179 -90.3996 -54.0077 78.9844 -18.6042 15.4521 -12.1833 -1.52836 17.5116 -9.03106 2.14827 -0.188234 -6.84439 1.42742 -2.59803 -1.26666 -5.41366 -2.3695 -0.224837 
13.3575 101.977 15.9703 173.231 -81.1501 171.836 -174.702 -5.01782 89.2499 -12.471 10.9747 0.645388 69.3817 6.12599 -2.24774 17.6038 -9.32698 8.64867 173.476 -5.6684 88.3588 -13.7013 -9.07521 -1.02818 67.2798 -3.75624 1.57128 27.4504 0.305299 1.06828 0.145254 7.8971 -90.0983 11.0798 0.243566 -0.219219 -0.591094 0.233688 -0.229736 -23.1264 0.29819 -0.135884 -3.11372 0.29819 -0.13589 87.9035 -31.0754 -110.42 40.4369 -11.8794 -4.27347 3.41619 -24.9306 -13.7648 -25.9436 -0.839486 -7.11853 -90.4031 -54.2963 79.0385 -18.4035 15.5096 -12.166 -1.47519 17.3599 -9.27667 1.86101 -0.185558 -6.94173 1.60002 -2.50472 -1.01313 -5.6228 -2.31407 -0.195656 
13.3518 101.977 16.0502 172.272 -81.1959 170.81 -174.756 -5.04471 89.1817 -12.3854 10.9812 0.672699 69.4267 6.13147 -2.32219 17.5794 -9.33157 8.61848 173.441 -5.75965 88.3265 -13.5015 -9.15455 -1.02201 67.2233 -3.83651 1.12546 27.7144 0.158624 1.48821 0.124589 7.90353 -90.1116 11.067 0.196318 -0.240945 -0.603988 0.185517 -0.249351 -23.1392 0.259647 -0.170807 -3.1265 0.259651 -0.170805 87.9878 -30.7256 -110.407 40.5059 -11.6862 -4.35052 3.42954 -25.2112 -13.8065 -25.0155 -0.730203 -7.85566 -90.3689 -54.6842 79.1658 -18.0364 15.6691 -12.3315 -1.46034 17.3694 -9.56595 1.87595 -0.167351 -6.44204 1.75728 -2.44143 -0.661226 -5.39519 -2.29921 -0.370944 
13.3575 101.977 16.0932 173.357 -81.3952 171.855 -174.897 -5.00689 89.025 -12.2025 10.5442 0.748322 69.4068 6.09889 -2.38972 17.4489 -9.39589 8.55998 173.396 -5.53834 88.2453 -13.5976 -9.3449 -1.00664 67.2064 -3.77292 1.43367 27.7122 0.225595 1.01277 0.138471 7.89244 -90.0993 11.0892 0.229618 -0.219785 -0.581792 0.219727 -0.229687 -23.117 0.285052 -0.140621 -3.10438 0.285061 -0.140616 87.9261 -30.9738 -110.42 40.3458 -11.91 -4.33309 3.48468 -25.704 -13.9376 -25.4855 -0.922874 -6.92423 -90.2206 -54.4367 79.3267 -18.5164 15.2966 -12.3534 -1.26279 17.4281 -9.43938 1.85697 -0.178865 -6.76183 2.13087 -2.5275 -0.815057 -6.00111 -2.34997 -0.52429 
13.2921 101.953 16.1446 175.153 -81.4762 173.568 -174.849 -5.05363 89.0012 -12.1471 10.5588 0.660349 69.4172 6.10931 -2.38156 17.6248 -9.39204 8.85001 173.484 -5.51045 88.2401 -13.5335 -9.55425 -1.13385 67.2472 -3.81869 1.41494 27.8299 0.169917 1.13306 0.16508 7.90096 -90.0832 11.0722 0.290013 -0.193625 -0.598743 0.281212 -0.206208 -23.1341 0.334797 -0.0975116 -3.12148 0.334799 -0.0975117 87.8326 -31.1994 -110.504 40.3461 -11.4264 -4.47026 3.51909 -27.1705 -13.6857 -25.4469 -0.924012 -7.3694 -90.2362 -54.3992 79.2971 -18.3806 15.5506 -12.4077 -1.38237 17.5738 -9.46637 2.11032 -0.162513 -6.2061 2.02802 -2.56447 -1.21641 -5.46515 -2.34489 0.0818513 
13.1629 101.961 16.2344 174.995 -81.5099 173.53 -174.698 -5.04396 89.2699 -12.1443 10.6793 0.627445 69.4046 6.12033 -2.42642 17.7689 -9.39559 9.10713 173.552 -5.58696 88.4489 -13.5017 -9.51285 -1.06699 67.2782 -3.91055 0.94725 27.5923 0.130583 1.97158 0.161284 7.89208 -90.0911 11.09 0.278808 -0.208276 -0.580913 0.269373 -0.220345 -23.1163 0.32851 -0.114859 -3.10362 0.328514 -0.114849 87.8738 -31.406 -110.337 40.2138 -11.6588 -4.36348 3.34885 -27.2138 -14.2297 -25.0277 -1.00571 -6.94614 -90.2814 -54.2929 79.2112 -18.5892 15.3871 -12.1588 -1.34664 17.3936 -9.38107 2.14973 -0.169031 -6.35842 1.71495 -2.60117 -1.8783 -5.28135 -2.30526 0.868456 
12.9907 101.965 16.3004 174.276 -81.6806 172.86 -174.478 -4.82312 89.5384 -12.2132 10.9566 0.46583 69.3746 6.09709 -2.44258 17.9844 -9.24801 9.10055 173.793 -5.49026 88.7291 -13.4982 -9.23685 -1.15124 67.3102 -3.91115 0.848993 27.6426 0.153101 1.69754 0.156027 7.88573 -90.0966 11.1026 0.265802 -0.218021 -0.568321 0.255954 -0.229512 -23.1036 0.319039 -0.128054 -3.09099 0.319034 -0.128063 87.81 -31.6067 -110.374 40.0322 -11.8528 -4.26579 3.1749 -26.6687 -14.4415 -25.419 -0.995675 -6.82747 -90.2204 -54.0144 79.2422 -18.9806 15.3429 -12.1864 -1.36126 17.2859 -9.18674 2.1125 -0.179604 -6.64443 1.73402 -2.63154 -1.73955 -5.53099 -2.34308 0.367781 
12.785 101.943 16.5119 172.414 -81.5846 171.159 -174.219 -4.8678 89.9542 -12.3905 11.7121 0.413178 69.4493 6.23778 -2.04386 18.196 -9.01749 8.87197 173.846 -5.78989 88.966 -13.3815 -8.62974 -1.00035 67.2549 -3.72902 1.50541 28.6364 -0.0276329 0.589584 0.129984 7.89425 -90.135 11.0856 0.196115 -0.287705 -0.585396 0.183271 -0.296057 -23.1205 0.273517 -0.215467 -3.10787 0.273521 -0.215459 87.8304 -31.3195 -110.457 40.3975 -11.6202 -4.19309 3.25462 -26.65 -14.065 -25.7185 -0.985695 -6.87297 -90.2449 -54.4907 79.3031 -18.2081 15.8353 -12.0507 -1.47429 17.4963 -9.70616 2.22113 -0.164289 -6.20881 1.652 -2.60345 -1.6075 -5.4924 -2.34453 0.611842 
12.6044 101.941 16.6198 172.445 -81.7736 171.026 -174.263 -4.8441 89.8916 -12.2185 11.5273 0.414245 69.4771 6.19136 -2.39852 18.1639 -9.13071 9.10982 173.929 -5.66392 89.0212 -13.4242 -9.0367 -1.10869 67.3913 -3.9792 0.723908 27.5198 0.225538 1.47194 0.132352 7.86738 -90.1015 11.1393 0.216361 -0.22301 -0.531621 0.206344 -0.232324 -23.0668 0.273375 -0.147674 -3.05421 0.273374 -0.147681 87.6123 -31.6941 -110.715 40.1162 -11.7345 -4.0047 3.2375 -25.5555 -14.0118 -25.9201 -0.892523 -7.04155 -90.105 -53.9795 79.4 -18.9123 15.5238 -11.9416 -1.36584 17.765 -9.45643 2.34154 -0.177544 -6.47684 1.36203 -2.63883 -2.00448 -5.45284 -2.3351 0.981941 
12.3472 101.91 16.8092 171.845 -81.9315 170.466 -174.13 -4.86946 90.136 -12.061 11.6943 0.395277 69.6969 6.34065 -2.4028 17.9796 -9.19612 8.95871 174.119 -5.64344 89.2773 -13.4025 -8.37067 -1.11311 67.4845 -3.89064 1.31417 27.761 0.160471 1.36554 0.139121 7.86029 -90.1107 11.1535 0.225505 -0.242366 -0.517466 0.214622 -0.252057 -23.0527 0.287919 -0.163374 -3.04004 0.287912 -0.163388 87.8428 -31.7141 -110.267 40.2083 -11.4262 -4.31347 3.72168 -27.436 -13.6491 -25.4361 -0.983229 -7.12603 -89.9767 -53.8148 79.5509 -19.0818 15.4133 -12.0892 -1.24208 18.4387 -9.51375 2.35287 -0.157804 -6.01104 1.43029 -2.60764 -2.15988 -5.19511 -2.28378 1.23115 
12.0344 101.888 17.0232 172.033 -81.9202 170.618 -173.853 -5.13669 90.4791 -11.7309 11.5735 0.25466 69.7182 6.25492 -2.80429 18.3003 -8.91016 8.77353 174.178 -5.80328 89.464 -13.4596 -8.55356 -1.08584 67.9018 -4.29996 0.503014 27.0417 0.299886 2.03222 0.162052 7.86422 -90.131 11.1458 0.261746 -0.286304 -0.525192 0.24889 -0.297551 -23.0604 0.335683 -0.194399 -3.04778 0.335685 -0.194406 87.8656 -31.5901 -110.275 40.2019 -11.3764 -4.19547 3.81392 -27.3193 -13.8353 -26.0477 -1.02395 -6.85811 -90.0661 -53.9907 79.458 -18.9973 15.4979 -12.1413 -1.31678 17.968 -9.51471 3.15238 -0.156489 -5.72052 1.46901 -2.56807 -1.75257 -5.37629 -2.2873 0.529116 
